<svg id="SvgjsSvg1001" width="288" height="288" xmlns="http://www.w3.org/2000/svg" version="1.1" xmlns:xlink="http://www.w3.org/1999/xlink" xmlns:svgjs="http://svgjs.com/svgjs"><defs id="SvgjsDefs1002"></defs><g id="SvgjsG1008" transform="matrix(1,0,0,1,0,0)"><svg xmlns="http://www.w3.org/2000/svg" aria-hidden="true" class="svg-inline--fa fa-window-restore fa-w-16 fa-9x" data-icon="window-restore" data-prefix="fal" viewBox="0 0 512 512" width="288" height="288"><path fill="#55a8ff" d="M464 0H144c-26.5 0-48 21.5-48 48v48H48c-26.5 0-48 21.5-48 48v320c0 26.5 21.5 48 48 48h320c26.5 0 48-21.5 48-48v-48h48c26.5 0 48-21.5 48-48V48c0-26.5-21.5-48-48-48zM32 144c0-8.8 7.2-16 16-16h320c8.8 0 16 7.2 16 16v80H32v-80zm352 320c0 8.8-7.2 16-16 16H48c-8.8 0-16-7.2-16-16V256h352v208zm96-96c0 8.8-7.2 16-16 16h-48V144c0-26.5-21.5-48-48-48H128V48c0-8.8 7.2-16 16-16h320c8.8 0 16 7.2 16 16v320z" class="colorcurrentColor svgShape"></path></svg></g></svg>